<svg xmlns="http://www.w3.org/2000/svg" width="24" height="24" viewBox="0 0 24 24"><metadata><rdf:RDF xmlns:rdf="http://www.w3.org/1999/02/22-rdf-syntax-ns#" xmlns:dc="http://purl.org/dc/elements/1.1/"><rdf:Description><dc:creator>RealFaviconGenerator</dc:creator><dc:source>https://realfavicongenerator.net</dc:source></rdf:Description></rdf:RDF></metadata><rect width="24" height="24" fill="none"></rect><g fill="none" stroke="#000" stroke-linecap="round" stroke-width="1.5"><path stroke-linejoin="round" d="M22 5h-8.386c-1.234 0-1.649.14-1.955 1.364l-2.32 9.278c-.55 2.198-.824 3.297-1.554 3.356s-1.235-.978-2.244-3.05l-.57-1.173c-.436-.893-.653-1.34-1.092-1.46c-.662-.182-1.37.355-1.879.685"></path><path d="M14.4 11.004c.78-.084 1.734.035 2.04.636c.612 1.2 1.62 3.72 1.98 4.5c.18.3.36.66 1.08.84c.48.06 1.104.015 1.104.015"></path><path d="M21 10.998c-1.5 0-2.46 1.662-3.3 2.682c-1.08 1.56-2.28 3.42-3.72 3.3"></path></g><style>@media (prefers-color-scheme: light) { :root { filter: none; } }
@media (prefers-color-scheme: dark) { :root { filter: invert(100%); } }
</style></svg>